<svg xmlns="http://www.w3.org/2000/svg" version="1.1" xmlns:xlink="http://www.w3.org/1999/xlink" xmlns:svgjs="http://svgjs.com/svgjs" width="1440" height="560" preserveAspectRatio="none" viewBox="0 0 1440 560">
    <g mask="url(&quot;#SvgjsMask1121&quot;)" fill="none">
        <rect width="1440" height="560" x="0" y="0" fill="rgba(245, 231, 223, 1)"></rect>
        <path d="M11.61 206.24L76.56 243.74L76.56 318.74L11.61 356.24L-53.34 318.74L-53.34 243.74zM76.56 318.74L141.52 356.24L141.52 431.24L76.56 468.74L11.61 431.24L11.61 356.24zM76.56 543.74L141.52 581.24L141.52 656.24L76.56 693.74L11.61 656.24L11.61 581.24zM141.52 -18.76L206.47 18.74L206.47 93.74L141.52 131.24L76.56 93.74L76.56 18.74zM141.52 206.24L206.47 243.74L206.47 318.74L141.52 356.24L76.56 318.74L76.56 243.74zM141.52 431.24L206.47 468.74L206.47 543.74L141.52 581.24L76.56 543.74L76.56 468.74zM336.38 93.74L401.33 131.24L401.33 206.24L336.38 243.74L271.43 206.24L271.43 131.24zM401.33 -18.76L466.29 18.74L466.29 93.74L401.33 131.24L336.38 93.74L336.38 18.74zM466.29 93.74L531.24 131.24L531.24 206.24L466.29 243.74L401.33 206.24L401.33 131.24zM401.33 206.24L466.29 243.74L466.29 318.74L401.33 356.24L336.38 318.74L336.38 243.74zM466.29 318.74L531.24 356.24L531.24 431.24L466.29 468.74L401.33 431.24L401.33 356.24zM401.33 431.24L466.29 468.74L466.29 543.74L401.33 581.24L336.38 543.74L336.38 468.74zM531.24 206.24L596.19 243.74L596.19 318.74L531.24 356.24L466.29 318.74L466.29 243.74zM531.24 431.24L596.19 468.74L596.19 543.74L531.24 581.24L466.29 543.74L466.29 468.74zM596.19 543.74L661.15 581.24L661.15 656.24L596.19 693.74L531.24 656.24L531.24 581.24zM661.15 -18.76L726.1 18.74L726.1 93.74L661.15 131.24L596.19 93.74L596.19 18.74zM726.1 93.74L791.06 131.24L791.06 206.24L726.1 243.74L661.15 206.24L661.15 131.24zM726.1 318.74L791.06 356.24L791.06 431.24L726.1 468.74L661.15 431.24L661.15 356.24zM726.1 543.74L791.06 581.24L791.06 656.24L726.1 693.74L661.15 656.24L661.15 581.24zM856.01 93.74L920.96 131.24L920.96 206.24L856.01 243.74L791.05 206.24L791.05 131.24zM856.01 318.74L920.96 356.24L920.96 431.24L856.01 468.74L791.05 431.24L791.05 356.24zM920.96 206.24L985.92 243.74L985.92 318.74L920.96 356.24L856.01 318.74L856.01 243.74zM920.96 431.24L985.92 468.74L985.92 543.74L920.96 581.24L856.01 543.74L856.01 468.74zM1115.82 93.74L1180.78 131.24L1180.78 206.24L1115.82 243.74L1050.87 206.24L1050.87 131.24zM1115.82 318.74L1180.78 356.24L1180.78 431.24L1115.82 468.74L1050.87 431.24L1050.87 356.24zM1180.78 206.24L1245.73 243.74L1245.73 318.74L1180.78 356.24L1115.82 318.74L1115.82 243.74zM1180.78 431.24L1245.73 468.74L1245.73 543.74L1180.78 581.24L1115.82 543.74L1115.82 468.74zM1375.64 93.74L1440.59 131.24L1440.59 206.24L1375.64 243.74L1310.68 206.24L1310.68 131.24zM1375.64 318.74L1440.59 356.24L1440.59 431.24L1375.64 468.74L1310.68 431.24L1310.68 356.24zM1310.68 431.24L1375.64 468.74L1375.64 543.74L1310.68 581.24L1245.73 543.74L1245.73 468.74zM1375.64 543.74L1440.59 581.24L1440.59 656.24L1375.64 693.74L1310.68 656.24L1310.68 581.24zM1440.59 -18.76L1505.55 18.74L1505.55 93.74L1440.59 131.24L1375.64 93.74L1375.64 18.74zM1505.55 93.74L1570.5 131.24L1570.5 206.24L1505.55 243.74L1440.59 206.24L1440.59 131.24zM1440.59 206.24L1505.55 243.74L1505.55 318.74L1440.59 356.24L1375.64 318.74L1375.64 243.74zM1505.55 318.74L1570.5 356.24L1570.5 431.24L1505.55 468.74L1440.59 431.24L1440.59 356.24z" stroke="rgba(127, 140, 77, 1)" stroke-width="2"></path>
        <path d="M4.11 206.24 a7.5 7.5 0 1 0 15 0 a7.5 7.5 0 1 0 -15 0zM69.06 243.74 a7.5 7.5 0 1 0 15 0 a7.5 7.5 0 1 0 -15 0zM69.06 318.74 a7.5 7.5 0 1 0 15 0 a7.5 7.5 0 1 0 -15 0zM4.11 356.24 a7.5 7.5 0 1 0 15 0 a7.5 7.5 0 1 0 -15 0zM-60.84 318.74 a7.5 7.5 0 1 0 15 0 a7.5 7.5 0 1 0 -15 0zM-60.84 243.74 a7.5 7.5 0 1 0 15 0 a7.5 7.5 0 1 0 -15 0zM134.02 356.24 a7.5 7.5 0 1 0 15 0 a7.5 7.5 0 1 0 -15 0zM134.02 431.24 a7.5 7.5 0 1 0 15 0 a7.5 7.5 0 1 0 -15 0zM69.06 468.74 a7.5 7.5 0 1 0 15 0 a7.5 7.5 0 1 0 -15 0zM4.11 431.24 a7.5 7.5 0 1 0 15 0 a7.5 7.5 0 1 0 -15 0zM69.06 543.74 a7.5 7.5 0 1 0 15 0 a7.5 7.5 0 1 0 -15 0zM134.02 581.24 a7.5 7.5 0 1 0 15 0 a7.5 7.5 0 1 0 -15 0zM134.02 656.24 a7.5 7.5 0 1 0 15 0 a7.5 7.5 0 1 0 -15 0zM69.06 693.74 a7.5 7.5 0 1 0 15 0 a7.5 7.5 0 1 0 -15 0zM4.11 656.24 a7.5 7.5 0 1 0 15 0 a7.5 7.5 0 1 0 -15 0zM4.11 581.24 a7.5 7.5 0 1 0 15 0 a7.5 7.5 0 1 0 -15 0zM134.02 -18.76 a7.5 7.5 0 1 0 15 0 a7.5 7.5 0 1 0 -15 0zM198.97 18.74 a7.5 7.5 0 1 0 15 0 a7.5 7.5 0 1 0 -15 0zM198.97 93.74 a7.5 7.5 0 1 0 15 0 a7.5 7.5 0 1 0 -15 0zM134.02 131.24 a7.5 7.5 0 1 0 15 0 a7.5 7.5 0 1 0 -15 0zM69.06 93.74 a7.5 7.5 0 1 0 15 0 a7.5 7.5 0 1 0 -15 0zM69.06 18.74 a7.5 7.5 0 1 0 15 0 a7.5 7.5 0 1 0 -15 0zM134.02 206.24 a7.5 7.5 0 1 0 15 0 a7.5 7.5 0 1 0 -15 0zM198.97 243.74 a7.5 7.5 0 1 0 15 0 a7.5 7.5 0 1 0 -15 0zM198.97 318.74 a7.5 7.5 0 1 0 15 0 a7.5 7.5 0 1 0 -15 0zM198.97 468.74 a7.5 7.5 0 1 0 15 0 a7.5 7.5 0 1 0 -15 0zM198.97 543.74 a7.5 7.5 0 1 0 15 0 a7.5 7.5 0 1 0 -15 0zM328.88 93.74 a7.5 7.5 0 1 0 15 0 a7.5 7.5 0 1 0 -15 0zM393.83 131.24 a7.5 7.5 0 1 0 15 0 a7.5 7.5 0 1 0 -15 0zM393.83 206.24 a7.5 7.5 0 1 0 15 0 a7.5 7.5 0 1 0 -15 0zM328.88 243.74 a7.5 7.5 0 1 0 15 0 a7.5 7.5 0 1 0 -15 0zM263.93 206.24 a7.5 7.5 0 1 0 15 0 a7.5 7.5 0 1 0 -15 0zM263.93 131.24 a7.5 7.5 0 1 0 15 0 a7.5 7.5 0 1 0 -15 0zM393.83 -18.76 a7.5 7.5 0 1 0 15 0 a7.5 7.5 0 1 0 -15 0zM458.79 18.74 a7.5 7.5 0 1 0 15 0 a7.5 7.5 0 1 0 -15 0zM458.79 93.74 a7.5 7.5 0 1 0 15 0 a7.5 7.5 0 1 0 -15 0zM328.88 18.74 a7.5 7.5 0 1 0 15 0 a7.5 7.5 0 1 0 -15 0zM523.74 131.24 a7.5 7.5 0 1 0 15 0 a7.5 7.5 0 1 0 -15 0zM523.74 206.24 a7.5 7.5 0 1 0 15 0 a7.5 7.5 0 1 0 -15 0zM458.79 243.74 a7.5 7.5 0 1 0 15 0 a7.5 7.5 0 1 0 -15 0zM458.79 318.74 a7.5 7.5 0 1 0 15 0 a7.5 7.5 0 1 0 -15 0zM393.83 356.24 a7.5 7.5 0 1 0 15 0 a7.5 7.5 0 1 0 -15 0zM328.88 318.74 a7.5 7.5 0 1 0 15 0 a7.5 7.5 0 1 0 -15 0zM523.74 356.24 a7.5 7.5 0 1 0 15 0 a7.5 7.5 0 1 0 -15 0zM523.74 431.24 a7.5 7.5 0 1 0 15 0 a7.5 7.5 0 1 0 -15 0zM458.79 468.74 a7.5 7.5 0 1 0 15 0 a7.5 7.5 0 1 0 -15 0zM393.83 431.24 a7.5 7.5 0 1 0 15 0 a7.5 7.5 0 1 0 -15 0zM458.79 543.74 a7.5 7.5 0 1 0 15 0 a7.5 7.5 0 1 0 -15 0zM393.83 581.24 a7.5 7.5 0 1 0 15 0 a7.5 7.5 0 1 0 -15 0zM328.88 543.74 a7.5 7.5 0 1 0 15 0 a7.5 7.5 0 1 0 -15 0zM328.88 468.74 a7.5 7.5 0 1 0 15 0 a7.5 7.5 0 1 0 -15 0zM588.69 243.74 a7.5 7.5 0 1 0 15 0 a7.5 7.5 0 1 0 -15 0zM588.69 318.74 a7.5 7.5 0 1 0 15 0 a7.5 7.5 0 1 0 -15 0zM588.69 468.74 a7.5 7.5 0 1 0 15 0 a7.5 7.5 0 1 0 -15 0zM588.69 543.74 a7.5 7.5 0 1 0 15 0 a7.5 7.5 0 1 0 -15 0zM523.74 581.24 a7.5 7.5 0 1 0 15 0 a7.5 7.5 0 1 0 -15 0zM653.65 581.24 a7.5 7.5 0 1 0 15 0 a7.5 7.5 0 1 0 -15 0zM653.65 656.24 a7.5 7.5 0 1 0 15 0 a7.5 7.5 0 1 0 -15 0zM588.69 693.74 a7.5 7.5 0 1 0 15 0 a7.5 7.5 0 1 0 -15 0zM523.74 656.24 a7.5 7.5 0 1 0 15 0 a7.5 7.5 0 1 0 -15 0zM653.65 -18.76 a7.5 7.5 0 1 0 15 0 a7.5 7.5 0 1 0 -15 0zM718.6 18.74 a7.5 7.5 0 1 0 15 0 a7.5 7.5 0 1 0 -15 0zM718.6 93.74 a7.5 7.5 0 1 0 15 0 a7.5 7.5 0 1 0 -15 0zM653.65 131.24 a7.5 7.5 0 1 0 15 0 a7.5 7.5 0 1 0 -15 0zM588.69 93.74 a7.5 7.5 0 1 0 15 0 a7.5 7.5 0 1 0 -15 0zM588.69 18.74 a7.5 7.5 0 1 0 15 0 a7.5 7.5 0 1 0 -15 0zM783.56 131.24 a7.5 7.5 0 1 0 15 0 a7.5 7.5 0 1 0 -15 0zM783.56 206.24 a7.5 7.5 0 1 0 15 0 a7.5 7.5 0 1 0 -15 0zM718.6 243.74 a7.5 7.5 0 1 0 15 0 a7.5 7.5 0 1 0 -15 0zM653.65 206.24 a7.5 7.5 0 1 0 15 0 a7.5 7.5 0 1 0 -15 0zM718.6 318.74 a7.5 7.5 0 1 0 15 0 a7.5 7.5 0 1 0 -15 0zM783.56 356.24 a7.5 7.5 0 1 0 15 0 a7.5 7.5 0 1 0 -15 0zM783.56 431.24 a7.5 7.5 0 1 0 15 0 a7.5 7.5 0 1 0 -15 0zM718.6 468.74 a7.5 7.5 0 1 0 15 0 a7.5 7.5 0 1 0 -15 0zM653.65 431.24 a7.5 7.5 0 1 0 15 0 a7.5 7.5 0 1 0 -15 0zM653.65 356.24 a7.5 7.5 0 1 0 15 0 a7.5 7.5 0 1 0 -15 0zM718.6 543.74 a7.5 7.5 0 1 0 15 0 a7.5 7.5 0 1 0 -15 0zM783.56 581.24 a7.5 7.5 0 1 0 15 0 a7.5 7.5 0 1 0 -15 0zM783.56 656.24 a7.5 7.5 0 1 0 15 0 a7.5 7.5 0 1 0 -15 0zM718.6 693.74 a7.5 7.5 0 1 0 15 0 a7.5 7.5 0 1 0 -15 0zM848.51 93.74 a7.5 7.5 0 1 0 15 0 a7.5 7.5 0 1 0 -15 0zM913.46 131.24 a7.5 7.5 0 1 0 15 0 a7.5 7.5 0 1 0 -15 0zM913.46 206.24 a7.5 7.5 0 1 0 15 0 a7.5 7.5 0 1 0 -15 0zM848.51 243.74 a7.5 7.5 0 1 0 15 0 a7.5 7.5 0 1 0 -15 0zM783.55 206.24 a7.5 7.5 0 1 0 15 0 a7.5 7.5 0 1 0 -15 0zM783.55 131.24 a7.5 7.5 0 1 0 15 0 a7.5 7.5 0 1 0 -15 0zM848.51 318.74 a7.5 7.5 0 1 0 15 0 a7.5 7.5 0 1 0 -15 0zM913.46 356.24 a7.5 7.5 0 1 0 15 0 a7.5 7.5 0 1 0 -15 0zM913.46 431.24 a7.5 7.5 0 1 0 15 0 a7.5 7.5 0 1 0 -15 0zM848.51 468.74 a7.5 7.5 0 1 0 15 0 a7.5 7.5 0 1 0 -15 0zM783.55 431.24 a7.5 7.5 0 1 0 15 0 a7.5 7.5 0 1 0 -15 0zM783.55 356.24 a7.5 7.5 0 1 0 15 0 a7.5 7.5 0 1 0 -15 0zM978.42 243.74 a7.5 7.5 0 1 0 15 0 a7.5 7.5 0 1 0 -15 0zM978.42 318.74 a7.5 7.5 0 1 0 15 0 a7.5 7.5 0 1 0 -15 0zM978.42 468.74 a7.5 7.5 0 1 0 15 0 a7.5 7.5 0 1 0 -15 0zM978.42 543.74 a7.5 7.5 0 1 0 15 0 a7.5 7.5 0 1 0 -15 0zM913.46 581.24 a7.5 7.5 0 1 0 15 0 a7.5 7.5 0 1 0 -15 0zM848.51 543.74 a7.5 7.5 0 1 0 15 0 a7.5 7.5 0 1 0 -15 0zM1108.32 93.74 a7.5 7.5 0 1 0 15 0 a7.5 7.5 0 1 0 -15 0zM1173.28 131.24 a7.5 7.5 0 1 0 15 0 a7.5 7.5 0 1 0 -15 0zM1173.28 206.24 a7.5 7.5 0 1 0 15 0 a7.5 7.5 0 1 0 -15 0zM1108.32 243.74 a7.5 7.5 0 1 0 15 0 a7.5 7.5 0 1 0 -15 0zM1043.37 206.24 a7.5 7.5 0 1 0 15 0 a7.5 7.5 0 1 0 -15 0zM1043.37 131.24 a7.5 7.5 0 1 0 15 0 a7.5 7.5 0 1 0 -15 0zM1108.32 318.74 a7.5 7.5 0 1 0 15 0 a7.5 7.5 0 1 0 -15 0zM1173.28 356.24 a7.5 7.5 0 1 0 15 0 a7.5 7.5 0 1 0 -15 0zM1173.28 431.24 a7.5 7.5 0 1 0 15 0 a7.5 7.5 0 1 0 -15 0zM1108.32 468.74 a7.5 7.5 0 1 0 15 0 a7.5 7.5 0 1 0 -15 0zM1043.37 431.24 a7.5 7.5 0 1 0 15 0 a7.5 7.5 0 1 0 -15 0zM1043.37 356.24 a7.5 7.5 0 1 0 15 0 a7.5 7.5 0 1 0 -15 0zM1238.23 243.74 a7.5 7.5 0 1 0 15 0 a7.5 7.5 0 1 0 -15 0zM1238.23 318.74 a7.5 7.5 0 1 0 15 0 a7.5 7.5 0 1 0 -15 0zM1238.23 468.74 a7.5 7.5 0 1 0 15 0 a7.5 7.5 0 1 0 -15 0zM1238.23 543.74 a7.5 7.5 0 1 0 15 0 a7.5 7.5 0 1 0 -15 0zM1173.28 581.24 a7.5 7.5 0 1 0 15 0 a7.5 7.5 0 1 0 -15 0zM1108.32 543.74 a7.5 7.5 0 1 0 15 0 a7.5 7.5 0 1 0 -15 0zM1368.14 93.74 a7.5 7.5 0 1 0 15 0 a7.5 7.5 0 1 0 -15 0zM1433.09 131.24 a7.5 7.5 0 1 0 15 0 a7.5 7.5 0 1 0 -15 0zM1433.09 206.24 a7.5 7.5 0 1 0 15 0 a7.5 7.5 0 1 0 -15 0zM1368.14 243.74 a7.5 7.5 0 1 0 15 0 a7.5 7.5 0 1 0 -15 0zM1303.18 206.24 a7.5 7.5 0 1 0 15 0 a7.5 7.5 0 1 0 -15 0zM1303.18 131.24 a7.5 7.5 0 1 0 15 0 a7.5 7.5 0 1 0 -15 0zM1368.14 318.74 a7.5 7.5 0 1 0 15 0 a7.5 7.5 0 1 0 -15 0zM1433.09 356.24 a7.5 7.5 0 1 0 15 0 a7.5 7.5 0 1 0 -15 0zM1433.09 431.24 a7.5 7.5 0 1 0 15 0 a7.5 7.5 0 1 0 -15 0zM1368.14 468.74 a7.5 7.5 0 1 0 15 0 a7.5 7.5 0 1 0 -15 0zM1303.18 431.24 a7.5 7.5 0 1 0 15 0 a7.5 7.5 0 1 0 -15 0zM1303.18 356.24 a7.5 7.5 0 1 0 15 0 a7.5 7.5 0 1 0 -15 0zM1368.14 543.74 a7.5 7.5 0 1 0 15 0 a7.5 7.5 0 1 0 -15 0zM1303.18 581.24 a7.5 7.5 0 1 0 15 0 a7.5 7.5 0 1 0 -15 0zM1433.09 581.24 a7.5 7.5 0 1 0 15 0 a7.5 7.5 0 1 0 -15 0zM1433.09 656.24 a7.5 7.5 0 1 0 15 0 a7.5 7.5 0 1 0 -15 0zM1368.14 693.74 a7.5 7.5 0 1 0 15 0 a7.5 7.5 0 1 0 -15 0zM1303.18 656.24 a7.5 7.5 0 1 0 15 0 a7.5 7.5 0 1 0 -15 0zM1433.09 -18.76 a7.5 7.5 0 1 0 15 0 a7.5 7.5 0 1 0 -15 0zM1498.05 18.74 a7.5 7.5 0 1 0 15 0 a7.5 7.5 0 1 0 -15 0zM1498.05 93.74 a7.5 7.5 0 1 0 15 0 a7.5 7.5 0 1 0 -15 0zM1368.14 18.74 a7.5 7.5 0 1 0 15 0 a7.5 7.5 0 1 0 -15 0zM1563 131.24 a7.5 7.5 0 1 0 15 0 a7.5 7.5 0 1 0 -15 0zM1563 206.24 a7.5 7.5 0 1 0 15 0 a7.5 7.5 0 1 0 -15 0zM1498.05 243.74 a7.5 7.5 0 1 0 15 0 a7.5 7.5 0 1 0 -15 0zM1498.05 318.74 a7.5 7.5 0 1 0 15 0 a7.5 7.5 0 1 0 -15 0zM1563 356.24 a7.5 7.5 0 1 0 15 0 a7.5 7.5 0 1 0 -15 0zM1563 431.24 a7.5 7.5 0 1 0 15 0 a7.5 7.5 0 1 0 -15 0zM1498.05 468.74 a7.5 7.5 0 1 0 15 0 a7.5 7.5 0 1 0 -15 0z" fill="rgba(127, 140, 77, 1)"></path>
        <path d="M0 -71L61.49 -35.5L61.49 35.5L0 71L-61.49 35.5L-61.49 -35.5zM61.49 35.5L122.98 71L122.98 142L61.49 177.5L0 142L0 71zM0 142L61.49 177.5L61.49 248.5L0 284L-61.49 248.5L-61.49 177.5zM61.49 248.5L122.98 284L122.98 355L61.49 390.5L0 355L0 284zM0 355L61.49 390.5L61.49 461.5L0 497L-61.49 461.5L-61.49 390.5zM61.49 461.5L122.98 497L122.98 568L61.49 603.5L0 568L0 497zM122.98 -71L184.47 -35.5L184.47 35.5L122.98 71L61.49 35.5L61.49 -35.5zM184.47 35.5L245.96 71L245.96 142L184.47 177.5L122.98 142L122.98 71zM122.98 142L184.47 177.5L184.47 248.5L122.98 284L61.49 248.5L61.49 177.5zM184.47 248.5L245.96 284L245.96 355L184.47 390.5L122.98 355L122.98 284zM122.98 355L184.47 390.5L184.47 461.5L122.98 497L61.49 461.5L61.49 390.5zM184.47 461.5L245.96 497L245.96 568L184.47 603.5L122.98 568L122.98 497zM245.96 -71L307.45 -35.5L307.45 35.5L245.96 71L184.47 35.5L184.47 -35.5zM307.45 35.5L368.94 71L368.94 142L307.45 177.5L245.96 142L245.96 71zM245.96 142L307.45 177.5L307.45 248.5L245.96 284L184.47 248.5L184.47 177.5zM307.45 248.5L368.94 284L368.94 355L307.45 390.5L245.96 355L245.96 284zM245.96 355L307.45 390.5L307.45 461.5L245.96 497L184.47 461.5L184.47 390.5zM307.45 461.5L368.94 497L368.94 568L307.45 603.5L245.96 568L245.96 497zM368.94 -71L430.43 -35.5L430.43 35.5L368.94 71L307.45 35.5L307.45 -35.5zM430.43 35.5L491.92 71L491.92 142L430.43 177.5L368.94 142L368.94 71zM368.94 142L430.43 177.5L430.43 248.5L368.94 284L307.45 248.5L307.45 177.5zM430.43 248.5L491.92 284L491.92 355L430.43 390.5L368.94 355L368.94 284zM368.94 355L430.43 390.5L430.43 461.5L368.94 497L307.45 461.5L307.45 390.5zM430.43 461.5L491.92 497L491.92 568L430.43 603.5L368.94 568L368.94 497zM491.92 -71L553.41 -35.5L553.41 35.5L491.92 71L430.43 35.5L430.43 -35.5zM553.41 35.5L614.9 71L614.9 142L553.41 177.5L491.92 142L491.92 71zM491.92 142L553.41 177.5L553.41 248.5L491.92 284L430.43 248.5L430.43 177.5zM553.41 248.5L614.9 284L614.9 355L553.41 390.5L491.92 355L491.92 284zM491.92 355L553.41 390.5L553.41 461.5L491.92 497L430.43 461.5L430.43 390.5zM553.41 461.5L614.9 497L614.9 568L553.41 603.5L491.92 568L491.92 497zM614.9 -71L676.39 -35.5L676.39 35.5L614.9 71L553.41 35.5L553.41 -35.5zM676.39 35.5L737.87 71L737.87 142L676.39 177.5L614.9 142L614.9 71zM614.9 142L676.39 177.5L676.39 248.5L614.9 284L553.41 248.5L553.41 177.5zM676.39 248.5L737.87 284L737.87 355L676.39 390.5L614.9 355L614.9 284zM614.9 355L676.39 390.5L676.39 461.5L614.9 497L553.41 461.5L553.41 390.5zM676.39 461.5L737.87 497L737.87 568L676.39 603.5L614.9 568L614.9 497zM737.87 -71L799.36 -35.5L799.36 35.5L737.87 71L676.39 35.5L676.39 -35.5zM799.36 35.5L860.85 71L860.85 142L799.36 177.5L737.87 142L737.87 71zM737.87 142L799.36 177.5L799.36 248.5L737.87 284L676.39 248.5L676.39 177.5zM799.36 248.5L860.85 284L860.85 355L799.36 390.5L737.87 355L737.87 284zM737.87 355L799.36 390.5L799.36 461.5L737.87 497L676.39 461.5L676.39 390.5zM799.36 461.5L860.85 497L860.85 568L799.36 603.5L737.87 568L737.87 497zM860.85 -71L922.34 -35.5L922.34 35.5L860.85 71L799.36 35.5L799.36 -35.5zM922.34 35.5L983.83 71L983.83 142L922.34 177.5L860.85 142L860.85 71zM860.85 142L922.34 177.5L922.34 248.5L860.85 284L799.36 248.5L799.36 177.5zM922.34 248.5L983.83 284L983.83 355L922.34 390.5L860.85 355L860.85 284zM860.85 355L922.34 390.5L922.34 461.5L860.85 497L799.36 461.5L799.36 390.5zM922.34 461.5L983.83 497L983.83 568L922.34 603.5L860.85 568L860.85 497zM983.83 -71L1045.32 -35.5L1045.32 35.5L983.83 71L922.34 35.5L922.34 -35.5zM1045.32 35.5L1106.81 71L1106.81 142L1045.32 177.5L983.83 142L983.83 71zM983.83 142L1045.32 177.5L1045.32 248.5L983.83 284L922.34 248.5L922.34 177.5zM1045.32 248.5L1106.81 284L1106.81 355L1045.32 390.5L983.83 355L983.83 284zM983.83 355L1045.32 390.5L1045.32 461.5L983.83 497L922.34 461.5L922.34 390.5zM1045.32 461.5L1106.81 497L1106.81 568L1045.32 603.5L983.83 568L983.83 497zM1106.81 -71L1168.3 -35.5L1168.3 35.5L1106.81 71L1045.32 35.5L1045.32 -35.5zM1168.3 35.5L1229.79 71L1229.79 142L1168.3 177.5L1106.81 142L1106.81 71zM1106.81 142L1168.3 177.5L1168.3 248.5L1106.81 284L1045.32 248.5L1045.32 177.5zM1168.3 248.5L1229.79 284L1229.79 355L1168.3 390.5L1106.81 355L1106.81 284zM1106.81 355L1168.3 390.5L1168.3 461.5L1106.81 497L1045.32 461.5L1045.32 390.5zM1168.3 461.5L1229.79 497L1229.79 568L1168.3 603.5L1106.81 568L1106.81 497zM1229.79 -71L1291.28 -35.5L1291.28 35.5L1229.79 71L1168.3 35.5L1168.3 -35.5zM1291.28 35.5L1352.77 71L1352.77 142L1291.28 177.5L1229.79 142L1229.79 71zM1229.79 142L1291.28 177.5L1291.28 248.5L1229.79 284L1168.3 248.5L1168.3 177.5zM1291.28 248.5L1352.77 284L1352.77 355L1291.28 390.5L1229.79 355L1229.79 284zM1229.79 355L1291.28 390.5L1291.28 461.5L1229.79 497L1168.3 461.5L1168.3 390.5zM1291.28 461.5L1352.77 497L1352.77 568L1291.28 603.5L1229.79 568L1229.79 497zM1352.77 -71L1414.26 -35.5L1414.26 35.5L1352.77 71L1291.28 35.5L1291.28 -35.5zM1414.26 35.5L1475.75 71L1475.75 142L1414.26 177.5L1352.77 142L1352.77 71zM1352.77 142L1414.26 177.5L1414.26 248.5L1352.77 284L1291.28 248.5L1291.28 177.5zM1414.26 248.5L1475.75 284L1475.75 355L1414.26 390.5L1352.77 355L1352.77 284zM1352.77 355L1414.26 390.5L1414.26 461.5L1352.77 497L1291.28 461.5L1291.28 390.5zM1414.26 461.5L1475.75 497L1475.75 568L1414.26 603.5L1352.77 568L1352.77 497z" stroke="rgba(160, 177, 133, 1)" stroke-width="2"></path>
    </g>
    <defs>
        <mask id="SvgjsMask1121">
            <rect width="1440" height="560" fill="#ffffff"></rect>
        </mask>
    </defs>
</svg>