<svg xmlns="http://www.w3.org/2000/svg" version="1.1" xmlns:xlink="http://www.w3.org/1999/xlink" xmlns:svgjs="http://svgjs.dev/svgjs" viewBox="0 0 800 800"><g fill="#7f8c4d" transform="matrix(3.4,0,0,3.4,-960,-952.8)"><circle r="0.5" cx="405" cy="400" opacity="0.62"></circle><circle r="0.5" cx="405" cy="402" opacity="0.67"></circle><circle r="0.5" cx="404" cy="405" opacity="0.74"></circle><circle r="0.5" cx="401" cy="406" opacity="0.13"></circle><circle r="0.5" cx="398" cy="407" opacity="0.39"></circle><circle r="0.5" cx="395" cy="405" opacity="0.37"></circle><circle r="0.5" cx="393" cy="403" opacity="0.54"></circle><circle r="0.5" cx="392" cy="399" opacity="0.44"></circle><circle r="0.5" cx="393" cy="396" opacity="0.24"></circle><circle r="0.5" cx="395" cy="392" opacity="0.37"></circle><circle r="0.5" cx="399" cy="390" opacity="0.65"></circle><circle r="0.5" cx="403" cy="391" opacity="0.89"></circle><circle r="0.5" cx="408" cy="393" opacity="0.32"></circle><circle r="0.5" cx="410" cy="397" opacity="0.54"></circle><circle r="0.5" cx="411" cy="402" opacity="0.93"></circle><circle r="0.5" cx="410" cy="407" opacity="0.35"></circle><circle r="0.5" cx="406" cy="411" opacity="0.74"></circle><circle r="0.5" cx="400" cy="413" opacity="0.62"></circle><circle r="0.5" cx="395" cy="412" opacity="0.54"></circle><circle r="0.5" cx="389" cy="409" opacity="0.46"></circle><circle r="0.5" cx="386" cy="403" opacity="0.73"></circle><circle r="0.5" cx="386" cy="397" opacity="0.85"></circle><circle r="0.5" cx="388" cy="390" opacity="0.67"></circle><circle r="0.5" cx="394" cy="386" opacity="0.36"></circle><circle r="0.5" cx="401" cy="384" opacity="0.80"></circle><circle r="0.5" cx="408" cy="386" opacity="0.47"></circle><circle r="0.5" cx="414" cy="390" opacity="0.34"></circle><circle r="0.5" cx="417" cy="397" opacity="0.21"></circle><circle r="0.5" cx="417" cy="406" opacity="0.14"></circle><circle r="0.5" cx="413" cy="413" opacity="0.11"></circle><circle r="0.5" cx="406" cy="418" opacity="0.52"></circle><circle r="0.5" cx="398" cy="419" opacity="0.11"></circle><circle r="0.5" cx="389" cy="416" opacity="0.80"></circle><circle r="0.5" cx="383" cy="410" opacity="0.12"></circle><circle r="0.5" cx="379" cy="401" opacity="0.33"></circle><circle r="0.5" cx="381" cy="392" opacity="0.68"></circle><circle r="0.5" cx="386" cy="384" opacity="0.52"></circle><circle r="0.5" cx="394" cy="379" opacity="0.31"></circle><circle r="0.5" cx="404" cy="378" opacity="0.77"></circle><circle r="0.5" cx="414" cy="382" opacity="0.64"></circle><circle r="0.5" cx="421" cy="390" opacity="0.69"></circle><circle r="0.5" cx="424" cy="400" opacity="0.45"></circle><circle r="0.5" cx="422" cy="411" opacity="0.39"></circle><circle r="1" cx="415" cy="420" opacity="0.79"></circle><circle r="1" cx="405" cy="425" opacity="0.48"></circle><circle r="1" cx="393" cy="425" opacity="0.49"></circle><circle r="1" cx="382" cy="419" opacity="0.49"></circle><circle r="1" cx="375" cy="410" opacity="0.59"></circle><circle r="1" cx="373" cy="398" opacity="0.39"></circle><circle r="1" cx="377" cy="386" opacity="0.68"></circle><circle r="1" cx="385" cy="376" opacity="0.18"></circle><circle r="1" cx="397" cy="372" opacity="0.15"></circle><circle r="1" cx="410" cy="373" opacity="0.56"></circle><circle r="1" cx="421" cy="380" opacity="0.13"></circle><circle r="1" cx="429" cy="391" opacity="0.56"></circle><circle r="1" cx="430" cy="405" opacity="0.56"></circle><circle r="1" cx="425" cy="418" opacity="0.75"></circle><circle r="1" cx="415" cy="428" opacity="0.36"></circle><circle r="1" cx="401" cy="432" opacity="0.13"></circle><circle r="1" cx="386" cy="429" opacity="0.84"></circle><circle r="1" cx="375" cy="420" opacity="0.11"></circle><circle r="1" cx="368" cy="407" opacity="0.62"></circle><circle r="1" cx="367" cy="392" opacity="0.95"></circle><circle r="1" cx="374" cy="378" opacity="0.37"></circle><circle r="1" cx="386" cy="368" opacity="0.27"></circle><circle r="1" cx="402" cy="365" opacity="0.57"></circle><circle r="1" cx="417" cy="369" opacity="0.72"></circle><circle r="1" cx="430" cy="380" opacity="0.86"></circle><circle r="1" cx="436" cy="395" opacity="0.42"></circle><circle r="1" cx="435" cy="412" opacity="0.19"></circle><circle r="1" cx="426" cy="426" opacity="0.54"></circle><circle r="1" cx="412" cy="436" opacity="0.27"></circle><circle r="1" cx="395" cy="438" opacity="0.28"></circle><circle r="1" cx="378" cy="432" opacity="0.61"></circle><circle r="1" cx="366" cy="419" opacity="0.90"></circle><circle r="1" cx="361" cy="402" opacity="0.23"></circle><circle r="1" cx="363" cy="384" opacity="0.43"></circle><circle r="1" cx="374" cy="369" opacity="0.72"></circle><circle r="1" cx="390" cy="360" opacity="0.43"></circle><circle r="1" cx="409" cy="360" opacity="0.33"></circle><circle r="1" cx="426" cy="367" opacity="0.55"></circle><circle r="1" cx="438" cy="382" opacity="0.87"></circle><circle r="1" cx="443" cy="401" opacity="0.12"></circle><circle r="1" cx="438" cy="420" opacity="0.95"></circle><circle r="1" cx="426" cy="435" opacity="0.89"></circle><circle r="1" cx="407" cy="443" opacity="0.18"></circle><circle r="1.5" cx="387" cy="443" opacity="0.94"></circle><circle r="1.5" cx="369" cy="433" opacity="0.11"></circle><circle r="1.5" cx="357" cy="416" opacity="0.56"></circle><circle r="1.5" cx="354" cy="395" opacity="0.78"></circle><circle r="1.5" cx="361" cy="375" opacity="0.36"></circle><circle r="1.5" cx="375" cy="360" opacity="0.40"></circle><circle r="1.5" cx="396" cy="353" opacity="0.12"></circle><circle r="1.5" cx="417" cy="355" opacity="0.29"></circle><circle r="1.5" cx="436" cy="367" opacity="0.64"></circle><circle r="1.5" cx="447" cy="386" opacity="0.27"></circle><circle r="1.5" cx="448" cy="409" opacity="0.75"></circle><circle r="1.5" cx="440" cy="430" opacity="0.19"></circle><circle r="1.5" cx="423" cy="445" opacity="0.27"></circle><circle r="1.5" cx="401" cy="451" opacity="0.33"></circle><circle r="1.5" cx="378" cy="446" opacity="0.12"></circle><circle r="1.5" cx="359" cy="432" opacity="0.58"></circle><circle r="1.5" cx="349" cy="411" opacity="0.44"></circle><circle r="1.5" cx="349" cy="387" opacity="0.82"></circle><circle r="1.5" cx="360" cy="365" opacity="0.81"></circle><circle r="1.5" cx="380" cy="351" opacity="0.64"></circle><circle r="1.5" cx="404" cy="346" opacity="0.51"></circle><circle r="1.5" cx="427" cy="353" opacity="0.17"></circle><circle r="1.5" cx="446" cy="370" opacity="0.31"></circle><circle r="1.5" cx="455" cy="393" opacity="0.57"></circle><circle r="1.5" cx="453" cy="418" opacity="0.14"></circle><circle r="1.5" cx="439" cy="440" opacity="0.65"></circle><circle r="1.5" cx="418" cy="454" opacity="0.61"></circle><circle r="1.5" cx="392" cy="456" opacity="0.95"></circle><circle r="1.5" cx="367" cy="447" opacity="0.52"></circle><circle r="1.5" cx="349" cy="428" opacity="0.69"></circle><circle r="1.5" cx="342" cy="403" opacity="0.95"></circle><circle r="1.5" cx="346" cy="376" opacity="0.34"></circle><circle r="1.5" cx="362" cy="355" opacity="0.45"></circle><circle r="1.5" cx="386" cy="342" opacity="0.14"></circle><circle r="1.5" cx="413" cy="341" opacity="0.19"></circle><circle r="1.5" cx="438" cy="353" opacity="0.99"></circle><circle r="1.5" cx="456" cy="375" opacity="1.00"></circle><circle r="1.5" cx="462" cy="402" opacity="0.35"></circle><circle r="1.5" cx="455" cy="429" opacity="0.95"></circle><circle r="1.5" cx="436" cy="451" opacity="0.69"></circle><circle r="1.5" cx="410" cy="462" opacity="0.15"></circle><circle r="1.5" cx="381" cy="461" opacity="0.90"></circle><circle r="1.5" cx="356" cy="446" opacity="0.61"></circle><circle r="2" cx="340" cy="422" opacity="0.99"></circle><circle r="2" cx="336" cy="393" opacity="0.73"></circle><circle r="2" cx="345" cy="365" opacity="0.39"></circle><circle r="2" cx="366" cy="344" opacity="0.95"></circle><circle r="2" cx="395" cy="334" opacity="0.25"></circle><circle r="2" cx="425" cy="338" opacity="0.61"></circle><circle r="2" cx="450" cy="355" opacity="0.77"></circle><circle r="2" cx="465" cy="382" opacity="0.74"></circle><circle r="2" cx="467" cy="413" opacity="0.88"></circle><circle r="2" cx="455" cy="441" opacity="0.39"></circle><circle r="2" cx="431" cy="462" opacity="0.89"></circle><circle r="2" cx="400" cy="469" opacity="0.52"></circle><circle r="2" cx="369" cy="463" opacity="0.88"></circle><circle r="2" cx="344" cy="443" opacity="0.99"></circle><circle r="2" cx="331" cy="414" opacity="0.92"></circle><circle r="2" cx="331" cy="381" opacity="0.30"></circle><circle r="2" cx="346" cy="352" opacity="0.17"></circle><circle r="2" cx="373" cy="333" opacity="0.81"></circle><circle r="2" cx="405" cy="328" opacity="0.46"></circle><circle r="2" cx="437" cy="337" opacity="0.11"></circle><circle r="2" cx="462" cy="360" opacity="0.44"></circle><circle r="2" cx="474" cy="392" opacity="0.49"></circle><circle r="2" cx="470" cy="425" opacity="0.94"></circle><circle r="2" cx="452" cy="454" opacity="0.17"></circle><circle r="2" cx="423" cy="472" opacity="0.77"></circle><circle r="2" cx="388" cy="475" opacity="0.76"></circle><circle r="2" cx="356" cy="462" opacity="0.41"></circle><circle r="2" cx="333" cy="437" opacity="0.54"></circle><circle r="2" cx="323" cy="403" opacity="0.30"></circle><circle r="2" cx="329" cy="368" opacity="0.30"></circle><circle r="2" cx="350" cy="340" opacity="0.67"></circle><circle r="2" cx="382" cy="323" opacity="0.92"></circle><circle r="2" cx="418" cy="323" opacity="0.19"></circle><circle r="2" cx="451" cy="339" opacity="0.68"></circle><circle r="2" cx="473" cy="368" opacity="0.58"></circle><circle r="2" cx="480" cy="403" opacity="0.29"></circle><circle r="2" cx="471" cy="439" opacity="0.59"></circle><circle r="2" cx="447" cy="467" opacity="0.62"></circle><circle r="2" cx="412" cy="481" opacity="0.22"></circle><circle r="2" cx="375" cy="478" opacity="0.37"></circle><circle r="2" cx="342" cy="459" opacity="0.84"></circle><circle r="2" cx="322" cy="428" opacity="0.95"></circle><circle r="2" cx="317" cy="390" opacity="0.36"></circle><circle r="2.5" cx="330" cy="354" opacity="0.19"></circle><circle r="2.5" cx="357" cy="327" opacity="0.90"></circle><circle r="2.5" cx="394" cy="315" opacity="0.55"></circle><circle r="2.5" cx="432" cy="321" opacity="0.61"></circle><circle r="2.5" cx="465" cy="343" opacity="0.37"></circle><circle r="2.5" cx="483" cy="378" opacity="0.61"></circle><circle r="2.5" cx="485" cy="417" opacity="0.54"></circle><circle r="2.5" cx="469" cy="453" opacity="0.43"></circle><circle r="2.5" cx="438" cy="479" opacity="0.51"></circle><circle r="2.5" cx="399" cy="488" opacity="0.19"></circle><circle r="2.5" cx="360" cy="479" opacity="0.56"></circle><circle r="2.5" cx="329" cy="453" opacity="0.14"></circle><circle r="2.5" cx="312" cy="416" opacity="0.93"></circle><circle r="2.5" cx="313" cy="375" opacity="0.95"></circle><circle r="2.5" cx="333" cy="339" opacity="0.85"></circle><circle r="2.5" cx="367" cy="315" opacity="0.74"></circle><circle r="2.5" cx="408" cy="309" opacity="0.18"></circle><circle r="2.5" cx="448" cy="321" opacity="0.58"></circle><circle r="2.5" cx="478" cy="351" opacity="0.22"></circle><circle r="2.5" cx="492" cy="390" opacity="0.28"></circle><circle r="2.5" cx="487" cy="432" opacity="0.37"></circle><circle r="2.5" cx="464" cy="468" opacity="0.69"></circle><circle r="2.5" cx="427" cy="490" opacity="0.47"></circle><circle r="2.5" cx="384" cy="493" opacity="0.96"></circle><circle r="2.5" cx="344" cy="477" opacity="0.29"></circle><circle r="2.5" cx="315" cy="445" opacity="0.18"></circle><circle r="2.5" cx="304" cy="403" opacity="0.75"></circle><circle r="2.5" cx="312" cy="359" opacity="0.65"></circle><circle r="2.5" cx="339" cy="324" opacity="0.41"></circle><circle r="2.5" cx="379" cy="305" opacity="0.12"></circle><circle r="2.5" cx="424" cy="305" opacity="0.91"></circle><circle r="2.5" cx="464" cy="325" opacity="0.86"></circle><circle r="2.5" cx="491" cy="361" opacity="0.91"></circle><circle r="2.5" cx="499" cy="405" opacity="0.63"></circle><circle r="2.5" cx="487" cy="449" opacity="0.90"></circle><circle r="2.5" cx="456" cy="483" opacity="0.72"></circle><circle r="2.5" cx="414" cy="500" opacity="0.85"></circle><circle r="2.5" cx="368" cy="496" opacity="0.44"></circle><circle r="2.5" cx="328" cy="472" opacity="0.68"></circle><circle r="2.5" cx="303" cy="433" opacity="0.11"></circle><circle r="2.5" cx="298" cy="387" opacity="0.51"></circle><circle r="2.5" cx="314" cy="343" opacity="0.45"></circle><circle r="2.5" cx="349" cy="310" opacity="0.47"></circle><circle r="3" cx="394" cy="296" opacity="0.33"></circle><circle r="3" cx="441" cy="304" opacity="0.69"></circle><circle r="3" cx="479" cy="332" opacity="0.54"></circle><circle r="3" cx="502" cy="374" opacity="0.71"></circle><circle r="3" cx="503" cy="422" opacity="0.18"></circle><circle r="3" cx="483" cy="466" opacity="0.64"></circle><circle r="3" cx="446" cy="496" opacity="0.68"></circle><circle r="3" cx="398" cy="507" opacity="0.71"></circle><circle r="3" cx="350" cy="496" opacity="0.80"></circle><circle r="3" cx="313" cy="464" opacity="0.91"></circle><circle r="3" cx="293" cy="419" opacity="0.53"></circle><circle r="3" cx="296" cy="369" opacity="0.17"></circle><circle r="3" cx="320" cy="326" opacity="0.93"></circle><circle r="3" cx="361" cy="297" opacity="0.80"></circle><circle r="3" cx="411" cy="290" opacity="0.13"></circle><circle r="3" cx="459" cy="306" opacity="0.11"></circle><circle r="3" cx="495" cy="341" opacity="0.21"></circle><circle r="3" cx="511" cy="389" opacity="0.12"></circle><circle r="3" cx="505" cy="440" opacity="0.34"></circle><circle r="3" cx="476" cy="483" opacity="0.70"></circle><circle r="3" cx="432" cy="509" opacity="0.28"></circle><circle r="3" cx="380" cy="512" opacity="0.71"></circle><circle r="3" cx="332" cy="492" opacity="0.60"></circle><circle r="3" cx="298" cy="452" opacity="0.93"></circle><circle r="3" cx="285" cy="402" opacity="0.56"></circle><circle r="3" cx="296" cy="350" opacity="0.49"></circle><circle r="3" cx="328" cy="309" opacity="0.90"></circle><circle r="3" cx="376" cy="286" opacity="0.20"></circle><circle r="3" cx="429" cy="287" opacity="0.65"></circle><circle r="3" cx="477" cy="311" opacity="0.47"></circle><circle r="3" cx="509" cy="354" opacity="0.81"></circle><circle r="3" cx="518" cy="407" opacity="0.14"></circle><circle r="3" cx="503" cy="459" opacity="0.89"></circle><circle r="3" cx="466" cy="499" opacity="0.17"></circle><circle r="3" cx="415" cy="519" opacity="0.49"></circle><circle r="3" cx="361" cy="513" opacity="0.98"></circle><circle r="3" cx="314" cy="485" opacity="0.34"></circle><circle r="3" cx="285" cy="438" opacity="0.54"></circle><circle r="3" cx="280" cy="383" opacity="0.29"></circle><circle r="3" cx="300" cy="331" opacity="0.17"></circle><circle r="3" cx="340" cy="293" opacity="0.88"></circle><circle r="3" cx="394" cy="277" opacity="0.62"></circle><circle r="3" cx="449" cy="287" opacity="0.96"></circle><circle r="3.5" cx="495" cy="320" opacity="0.15"></circle><circle r="3.5" cx="521" cy="370" opacity="0.27"></circle><circle r="3.5" cx="522" cy="427" opacity="0.61"></circle><circle r="3.5" cx="497" cy="479" opacity="0.94"></circle><circle r="3.5" cx="452" cy="514" opacity="0.79"></circle><circle r="3.5" cx="396" cy="526" opacity="0.26"></circle><circle r="3.5" cx="341" cy="512" opacity="0.14"></circle><circle r="3.5" cx="297" cy="474" opacity="0.34"></circle><circle r="3.5" cx="274" cy="421" opacity="0.20"></circle><circle r="3.5" cx="278" cy="362" opacity="0.43"></circle><circle r="3.5" cx="307" cy="312" opacity="0.62"></circle><circle r="3.5" cx="356" cy="279" opacity="0.83"></circle><circle r="3.5" cx="414" cy="272" opacity="0.17"></circle><circle r="3.5" cx="470" cy="291" opacity="0.37"></circle><circle r="3.5" cx="511" cy="333" opacity="0.79"></circle><circle r="3.5" cx="530" cy="389" opacity="0.52"></circle><circle r="3.5" cx="522" cy="448" opacity="0.67"></circle><circle r="3.5" cx="488" cy="498" opacity="0.35"></circle><circle r="3.5" cx="436" cy="527" opacity="0.37"></circle><circle r="3.5" cx="376" cy="530" opacity="0.23"></circle><circle r="3.5" cx="320" cy="506" opacity="0.45"></circle><circle r="3.5" cx="281" cy="460" opacity="0.37"></circle><circle r="3.5" cx="266" cy="401" opacity="0.20"></circle><circle r="3.5" cx="279" cy="341" opacity="0.43"></circle><circle r="3.5" cx="318" cy="293" opacity="0.34"></circle><circle r="3.5" cx="374" cy="267" opacity="0.41"></circle><circle r="3.5" cx="435" cy="269" opacity="0.41"></circle><circle r="3.5" cx="490" cy="298" opacity="0.95"></circle><circle r="3.5" cx="526" cy="348" opacity="0.18"></circle><circle r="3.5" cx="537" cy="410" opacity="0.63"></circle><circle r="3.5" cx="518" cy="470" opacity="0.16"></circle><circle r="3.5" cx="475" cy="516" opacity="0.13"></circle><circle r="3.5" cx="416" cy="537" opacity="0.34"></circle><circle r="3.5" cx="353" cy="531" opacity="0.37"></circle><circle r="3.5" cx="300" cy="497" opacity="0.23"></circle><circle r="3.5" cx="267" cy="442" opacity="0.39"></circle><circle r="3.5" cx="261" cy="379" opacity="0.19"></circle><circle r="3.5" cx="285" cy="319" opacity="0.65"></circle><circle r="3.5" cx="332" cy="276" opacity="0.38"></circle><circle r="3.5" cx="394" cy="258" opacity="0.90"></circle><circle r="3.5" cx="458" cy="270" opacity="0.77"></circle><circle r="3.5" cx="510" cy="309" opacity="0.74"></circle><circle r="3.5" cx="539" cy="367" opacity="0.14"></circle><circle r="4" cx="540" cy="433" opacity="0.91"></circle><circle r="4" cx="511" cy="492" opacity="0.58"></circle><circle r="4" cx="459" cy="532" opacity="0.47"></circle><circle r="4" cx="394" cy="545" opacity="0.70"></circle><circle r="4" cx="330" cy="528" opacity="0.32"></circle><circle r="4" cx="281" cy="484" opacity="0.93"></circle><circle r="4" cx="255" cy="422" opacity="0.92"></circle><circle r="4" cx="260" cy="355" opacity="0.26"></circle><circle r="4" cx="294" cy="298" opacity="0.54"></circle><circle r="4" cx="350" cy="261" opacity="0.14"></circle><circle r="4" cx="417" cy="253" opacity="0.91"></circle><circle r="4" cx="481" cy="276" opacity="0.39"></circle><circle r="4" cx="528" cy="324" opacity="0.88"></circle><circle r="4" cx="549" cy="389" opacity="0.11"></circle><circle r="4" cx="539" cy="457" opacity="0.46"></circle><circle r="4" cx="500" cy="513" opacity="0.99"></circle><circle r="4" cx="439" cy="546" opacity="0.92"></circle><circle r="4" cx="371" cy="548" opacity="0.79"></circle><circle r="4" cx="307" cy="520" opacity="0.68"></circle><circle r="4" cx="263" cy="467" opacity="0.21"></circle><circle r="4" cx="247" cy="399" opacity="0.36"></circle><circle r="4" cx="263" cy="331" opacity="0.96"></circle><circle r="4" cx="308" cy="277" opacity="0.51"></circle><circle r="4" cx="372" cy="249" opacity="0.47"></circle><circle r="4" cx="442" cy="251" opacity="0.25"></circle><circle r="4" cx="504" cy="285" opacity="0.36"></circle><circle r="4" cx="545" cy="343" opacity="0.99"></circle><circle r="4" cx="555" cy="413" opacity="0.86"></circle><circle r="4" cx="534" cy="481" opacity="0.99"></circle><circle r="4" cx="484" cy="532" opacity="0.43"></circle><circle r="4" cx="417" cy="556" opacity="0.55"></circle><circle r="4" cx="346" cy="548" opacity="1.00"></circle><circle r="4" cx="285" cy="509" opacity="0.51"></circle><circle r="4" cx="248" cy="447" opacity="0.34"></circle><circle r="4" cx="243" cy="374" opacity="0.75"></circle><circle r="4" cx="270" cy="307" opacity="0.47"></circle><circle r="4" cx="325" cy="259" opacity="0.56"></circle><circle r="4" cx="395" cy="240" opacity="0.77"></circle><circle r="4" cx="467" cy="254" opacity="0.96"></circle><circle r="4" cx="526" cy="299" opacity="0.18"></circle><circle r="4" cx="558" cy="365" opacity="0.80"></circle><circle r="4" cx="558" cy="439" opacity="0.97"></circle><circle r="4" cx="524" cy="505" opacity="0.84"></circle><circle r="4.5" cx="465" cy="550" opacity="0.17"></circle><circle r="4.5" cx="392" cy="563" opacity="0.75"></circle><circle r="4.5" cx="320" cy="543" opacity="0.63"></circle><circle r="4.5" cx="264" cy="493" opacity="0.72"></circle><circle r="4.5" cx="237" cy="423" opacity="0.52"></circle><circle r="4.5" cx="243" cy="348" opacity="0.43"></circle><circle r="4.5" cx="282" cy="283" opacity="0.61"></circle><circle r="4.5" cx="346" cy="243" opacity="0.49"></circle><circle r="4.5" cx="421" cy="234" opacity="0.15"></circle><circle r="4.5" cx="493" cy="261" opacity="0.24"></circle><circle r="4.5" cx="545" cy="316" opacity="0.78"></circle><circle r="4.5" cx="568" cy="389" opacity="0.59"></circle><circle r="4.5" cx="556" cy="465" opacity="0.63"></circle><circle r="4.5" cx="511" cy="528" opacity="0.57"></circle><circle r="4.5" cx="443" cy="564" opacity="0.74"></circle><circle r="4.5" cx="365" cy="567" opacity="0.47"></circle><circle r="4.5" cx="295" cy="534" opacity="0.39"></circle><circle r="4.5" cx="246" cy="474" opacity="0.41"></circle><circle r="4.5" cx="229" cy="397" opacity="0.96"></circle><circle r="4.5" cx="247" cy="321" opacity="0.67"></circle><circle r="4.5" cx="298" cy="261" opacity="0.47"></circle><circle r="4.5" cx="370" cy="230" opacity="0.41"></circle><circle r="4.5" cx="449" cy="234" opacity="0.18"></circle><circle r="4.5" cx="518" cy="272" opacity="0.20"></circle><circle r="4.5" cx="563" cy="338" opacity="0.39"></circle><circle r="4.5" cx="574" cy="416" opacity="0.42"></circle><circle r="4.5" cx="549" cy="492" opacity="0.33"></circle><circle r="4.5" cx="493" cy="549" opacity="0.11"></circle><circle r="4.5" cx="417" cy="575" opacity="0.17"></circle><circle r="4.5" cx="337" cy="565" opacity="0.15"></circle><circle r="4.5" cx="270" cy="520" opacity="0.48"></circle><circle r="4.5" cx="230" cy="450" opacity="0.99"></circle><circle r="4.5" cx="225" cy="369" opacity="0.65"></circle><circle r="4.5" cx="256" cy="295" opacity="0.85"></circle><circle r="4.5" cx="318" cy="241" opacity="0.71"></circle><circle r="4.5" cx="397" cy="221" opacity="0.78"></circle><circle r="4.5" cx="477" cy="237" opacity="0.34"></circle><circle r="4.5" cx="541" cy="288" opacity="0.61"></circle><circle r="4.5" cx="577" cy="362" opacity="0.19"></circle><circle r="4.5" cx="576" cy="445" opacity="0.42"></circle><circle r="4.5" cx="538" cy="519" opacity="0.73"></circle><circle r="4.5" cx="471" cy="568" opacity="0.51"></circle><circle r="4.5" cx="389" cy="582" opacity="0.24"></circle><circle r="5" cx="309" cy="559" opacity="0.44"></circle><circle r="5" cx="248" cy="502" opacity="0.96"></circle><circle r="5" cx="218" cy="424" opacity="0.13"></circle><circle r="5" cx="226" cy="340" opacity="0.18"></circle><circle r="5" cx="270" cy="269" opacity="0.62"></circle><circle r="5" cx="341" cy="224" opacity="0.50"></circle><circle r="5" cx="426" cy="216" opacity="0.30"></circle><circle r="5" cx="505" cy="246" opacity="0.75"></circle><circle r="5" cx="563" cy="308" opacity="0.18"></circle><circle r="5" cx="587" cy="390" opacity="0.76"></circle><circle r="5" cx="572" cy="474" opacity="0.47"></circle><circle r="5" cx="522" cy="543" opacity="0.30"></circle><circle r="5" cx="445" cy="583" opacity="0.29"></circle><circle r="5" cx="359" cy="585" opacity="0.92"></circle><circle r="5" cx="281" cy="548" opacity="0.34"></circle><circle r="5" cx="228" cy="480" opacity="0.19"></circle><circle r="5" cx="210" cy="395" opacity="0.79"></circle><circle r="5" cx="231" cy="311" opacity="0.69"></circle><circle r="5" cx="288" cy="245" opacity="0.64"></circle><circle r="5" cx="369" cy="211" opacity="0.96"></circle><circle r="5" cx="456" cy="216" opacity="0.14"></circle><circle r="5" cx="532" cy="260" opacity="0.83"></circle><circle r="5" cx="581" cy="333" opacity="0.25"></circle><circle r="5" cx="593" cy="420" opacity="0.13"></circle><circle r="5" cx="564" cy="504" opacity="0.83"></circle><circle r="5" cx="501" cy="566" opacity="0.89"></circle><circle r="5" cx="417" cy="594" opacity="0.39"></circle><circle r="5" cx="329" cy="582" opacity="0.12"></circle><circle r="5" cx="255" cy="532" opacity="0.19"></circle><circle r="5" cx="211" cy="454" opacity="0.48"></circle><circle r="5" cx="206" cy="364" opacity="0.23"></circle><circle r="5" cx="242" cy="282" opacity="0.35"></circle><circle r="5" cx="311" cy="224" opacity="0.39"></circle><circle r="5" cx="398" cy="202" opacity="0.96"></circle><circle r="5" cx="487" cy="221" opacity="0.85"></circle><circle r="5" cx="557" cy="278" opacity="0.47"></circle><circle r="5" cx="596" cy="361" opacity="0.59"></circle><circle r="5" cx="593" cy="452" opacity="0.95"></circle><circle r="5" cx="551" cy="532" opacity="0.58"></circle><circle r="5" cx="476" cy="586" opacity="0.49"></circle><circle r="5" cx="386" cy="601" opacity="0.23"></circle><circle r="5" cx="298" cy="574" opacity="0.75"></circle><circle r="5" cx="231" cy="511" opacity="0.91"></circle><circle r="5.5" cx="199" cy="424" opacity="0.37"></circle><circle r="5.5" cx="208" cy="332" opacity="0.80"></circle><circle r="5.5" cx="258" cy="254" opacity="0.53"></circle><circle r="5.5" cx="337" cy="206" opacity="0.81"></circle><circle r="5.5" cx="430" cy="198" opacity="0.17"></circle><circle r="5.5" cx="517" cy="232" opacity="0.94"></circle><circle r="5.5" cx="580" cy="301" opacity="0.11"></circle><circle r="5.5" cx="606" cy="391" opacity="0.46"></circle><circle r="5.5" cx="589" cy="484" opacity="0.38"></circle><circle r="5.5" cx="532" cy="559" opacity="0.48"></circle><circle r="5.5" cx="448" cy="602" opacity="0.88"></circle><circle r="5.5" cx="353" cy="603" opacity="0.97"></circle><circle r="5.5" cx="268" cy="561" opacity="0.50"></circle><circle r="5.5" cx="210" cy="486" opacity="0.97"></circle><circle r="5.5" cx="191" cy="392" opacity="0.12"></circle><circle r="5.5" cx="216" cy="300" opacity="0.82"></circle><circle r="5.5" cx="279" cy="228" opacity="0.78"></circle><circle r="5.5" cx="368" cy="192" opacity="0.81"></circle><circle r="5.5" cx="464" cy="199" opacity="0.27"></circle><circle r="5.5" cx="547" cy="247" opacity="0.91"></circle><circle r="5.5" cx="599" cy="328" opacity="0.30"></circle><circle r="5.5" cx="611" cy="424" opacity="0.87"></circle><circle r="5.5" cx="579" cy="516" opacity="0.42"></circle><circle r="5.5" cx="509" cy="583" opacity="0.74"></circle><circle r="5.5" cx="416" cy="613" opacity="0.62"></circle><circle r="5.5" cx="320" cy="599" opacity="0.74"></circle><circle r="5.5" cx="239" cy="543" opacity="0.39"></circle><circle r="5.5" cx="192" cy="457" opacity="0.15"></circle><circle r="5.5" cx="188" cy="359" opacity="0.29"></circle><circle r="5.5" cx="228" cy="269" opacity="0.78"></circle><circle r="5.5" cx="304" cy="206" opacity="0.44"></circle><circle r="5.5" cx="401" cy="183" opacity="0.80"></circle><circle r="5.5" cx="497" cy="205" opacity="0.87"></circle><circle r="5.5" cx="574" cy="268" opacity="0.62"></circle><circle r="5.5" cx="615" cy="359" opacity="0.56"></circle><circle r="5.5" cx="611" cy="459" opacity="0.84"></circle><circle r="5.5" cx="563" cy="547" opacity="0.60"></circle><circle r="5.5" cx="481" cy="604" opacity="0.77"></circle><circle r="5.5" cx="382" cy="620" opacity="0.15"></circle><circle r="5.5" cx="286" cy="589" opacity="0.30"></circle><circle r="5.5" cx="214" cy="519" opacity="0.96"></circle><circle r="5.5" cx="180" cy="424" opacity="0.82"></circle><circle r="5.5" cx="191" cy="324" opacity="0.31"></circle><circle r="6" cx="247" cy="239" opacity="0.94"></circle><circle r="6" cx="334" cy="187" opacity="0.78"></circle><circle r="6" cx="435" cy="179" opacity="0.36"></circle><circle r="6" cx="530" cy="218" opacity="0.58"></circle><circle r="6" cx="598" cy="294" opacity="0.80"></circle><circle r="6" cx="625" cy="393" opacity="0.14"></circle><circle r="6" cx="605" cy="494" opacity="0.70"></circle><circle r="6" cx="542" cy="575" opacity="0.85"></circle><circle r="6" cx="450" cy="621" opacity="0.78"></circle><circle r="6" cx="347" cy="620" opacity="0.43"></circle><circle r="6" cx="254" cy="574" opacity="0.26"></circle><circle r="6" cx="192" cy="491" opacity="0.67"></circle><circle r="6" cx="172" cy="389" opacity="0.71"></circle><circle r="6" cx="200" cy="289" opacity="0.56"></circle><circle r="6" cx="270" cy="211" opacity="0.67"></circle><circle r="6" cx="367" cy="173" opacity="0.20"></circle><circle r="6" cx="471" cy="181" opacity="0.18"></circle><circle r="6" cx="561" cy="236" opacity="0.13"></circle><circle r="6" cx="618" cy="324" opacity="0.64"></circle><circle r="6" cx="630" cy="429" opacity="0.44"></circle><circle r="6" cx="593" cy="528" opacity="0.90"></circle><circle r="6" cx="516" cy="601" opacity="0.24"></circle><circle r="6" cx="415" cy="632" opacity="0.49"></circle><circle r="6" cx="310" cy="615" opacity="0.42"></circle><circle r="6" cx="224" cy="553" opacity="0.89"></circle><circle r="6" cx="174" cy="459" opacity="0.50"></circle><circle r="6" cx="170" cy="353" opacity="0.49"></circle><circle r="6" cx="215" cy="255" opacity="0.98"></circle><circle r="6" cx="298" cy="188" opacity="0.63"></circle><circle r="6" cx="403" cy="164" opacity="0.43"></circle><circle r="6" cx="508" cy="190" opacity="0.98"></circle><circle r="6" cx="590" cy="259" opacity="0.13"></circle><circle r="6" cx="634" cy="358" opacity="0.90"></circle><circle r="6" cx="628" cy="466" opacity="0.40"></circle><circle r="6" cx="576" cy="561" opacity="0.89"></circle><circle r="6" cx="486" cy="623" opacity="0.80"></circle><circle r="6" cx="378" cy="638" opacity="0.97"></circle><circle r="6" cx="274" cy="604" opacity="0.10"></circle><circle r="6" cx="197" cy="527" opacity="0.62"></circle><circle r="6" cx="161" cy="424" opacity="0.45"></circle><circle r="6" cx="175" cy="315" opacity="0.49"></circle><circle r="6" cx="235" cy="223" opacity="0.51"></circle><circle r="6" cx="331" cy="168" opacity="0.70"></circle><circle r="6.5" cx="441" cy="161" opacity="0.27"></circle><circle r="6.5" cx="543" cy="204" opacity="0.45"></circle><circle r="6.5" cx="616" cy="287" opacity="0.78"></circle><circle r="6.5" cx="644" cy="395" opacity="0.82"></circle><circle r="6.5" cx="621" cy="504" opacity="0.49"></circle><circle r="6.5" cx="552" cy="591" opacity="0.27"></circle><circle r="6.5" cx="452" cy="640" opacity="0.14"></circle><circle r="6.5" cx="340" cy="638" opacity="0.41"></circle><circle r="6.5" cx="240" cy="587" opacity="0.89"></circle><circle r="6.5" cx="173" cy="497" opacity="0.88"></circle><circle r="6.5" cx="153" cy="386" opacity="0.44"></circle><circle r="6.5" cx="185" cy="278" opacity="0.60"></circle><circle r="6.5" cx="261" cy="195" opacity="0.33"></circle><circle r="6.5" cx="367" cy="154" opacity="0.37"></circle><circle r="6.5" cx="480" cy="164" opacity="0.56"></circle><circle r="6.5" cx="576" cy="224" opacity="0.73"></circle><circle r="6.5" cx="637" cy="320" opacity="0.73"></circle><circle r="6.5" cx="648" cy="434" opacity="0.99"></circle><circle r="6.5" cx="607" cy="541" opacity="0.59"></circle><circle r="6.5" cx="524" cy="619" opacity="0.67"></circle><circle r="6.5" cx="414" cy="651" opacity="0.59"></circle><circle r="6.5" cx="301" cy="632" opacity="0.83"></circle><circle r="6.5" cx="208" cy="564" opacity="0.61"></circle><circle r="6.5" cx="155" cy="462" opacity="0.45"></circle><circle r="6.5" cx="152" cy="346" opacity="0.27"></circle><circle r="6.5" cx="202" cy="242" opacity="0.28"></circle><circle r="6.5" cx="292" cy="170" opacity="0.24"></circle><circle r="6.5" cx="406" cy="145" opacity="0.34"></circle><circle r="6.5" cx="519" cy="174" opacity="0.48"></circle><circle r="6.5" cx="607" cy="250" opacity="0.94"></circle><circle r="6.5" cx="653" cy="357" opacity="0.23"></circle><circle r="6.5" cx="646" cy="474" opacity="0.22"></circle><circle r="6.5" cx="588" cy="576" opacity="0.47"></circle><circle r="6.5" cx="490" cy="641" opacity="0.11"></circle><circle r="6.5" cx="374" cy="657" opacity="0.90"></circle><circle r="6.5" cx="262" cy="619" opacity="0.12"></circle><circle r="6.5" cx="179" cy="535" opacity="0.33"></circle><circle r="6.5" cx="142" cy="423" opacity="0.90"></circle><circle r="6.5" cx="158" cy="306" opacity="0.38"></circle><circle r="6.5" cx="225" cy="208" opacity="0.93"></circle><circle r="6.5" cx="328" cy="149" opacity="0.33"></circle><circle r="6.5" cx="447" cy="143" opacity="0.51"></circle><circle r="6.5" cx="556" cy="190" opacity="0.37"></circle><circle r="7" cx="634" cy="281" opacity="0.69"></circle><circle r="7" cx="663" cy="397" opacity="0.27"></circle><circle r="7" cx="637" cy="514" opacity="0.20"></circle><circle r="7" cx="562" cy="608" opacity="0.71"></circle><circle r="7" cx="453" cy="659" opacity="0.78"></circle><circle r="7" cx="332" cy="656" opacity="0.70"></circle><circle r="7" cx="226" cy="599" opacity="0.16"></circle><circle r="7" cx="155" cy="501" opacity="0.17"></circle><circle r="7" cx="135" cy="382" opacity="0.59"></circle><circle r="7" cx="170" cy="266" opacity="0.99"></circle><circle r="7" cx="253" cy="177" opacity="0.37"></circle><circle r="7" cx="367" cy="135" opacity="0.95"></circle><circle r="7" cx="489" cy="147" opacity="0.89"></circle><circle r="7" cx="592" cy="213" opacity="0.86"></circle><circle r="7" cx="655" cy="317" opacity="0.84"></circle><circle r="7" cx="666" cy="439" opacity="0.70"></circle><circle r="7" cx="621" cy="554" opacity="0.64"></circle><circle r="7" cx="531" cy="636" opacity="0.49"></circle><circle r="7" cx="412" cy="670" opacity="0.98"></circle><circle r="7" cx="291" cy="648" opacity="0.86"></circle><circle r="7" cx="192" cy="574" opacity="0.66"></circle><circle r="7" cx="136" cy="463" opacity="0.76"></circle><circle r="7" cx="135" cy="339" opacity="0.40"></circle><circle r="7" cx="189" cy="228" opacity="0.65"></circle><circle r="7" cx="287" cy="151" opacity="0.50"></circle><circle r="7" cx="409" cy="127" opacity="0.60"></circle><circle r="7" cx="530" cy="159" opacity="0.44"></circle><circle r="7" cx="624" cy="241" opacity="0.54"></circle><circle r="7" cx="672" cy="357" opacity="0.66"></circle><circle r="7" cx="663" cy="482" opacity="0.59"></circle><circle r="7" cx="599" cy="591" opacity="0.24"></circle><circle r="7" cx="494" cy="660" opacity="0.16"></circle><circle r="7" cx="369" cy="675" opacity="0.59"></circle><circle r="7" cx="250" cy="633" opacity="0.16"></circle><circle r="7" cx="162" cy="542" opacity="0.22"></circle><circle r="7" cx="123" cy="422" opacity="0.53"></circle><circle r="7" cx="141" cy="296" opacity="0.23"></circle><circle r="7" cx="214" cy="192" opacity="0.67"></circle><circle r="7" cx="326" cy="130" opacity="0.31"></circle><circle r="7" cx="453" cy="125" opacity="0.77"></circle><circle r="7" cx="570" cy="177" opacity="0.47"></circle><circle r="7" cx="652" cy="275" opacity="0.11"></circle><circle r="7" cx="681" cy="400" opacity="0.87"></circle><circle r="7.5" cx="653" cy="525" opacity="0.57"></circle><circle r="7.5" cx="571" cy="625" opacity="0.77"></circle><circle r="7.5" cx="454" cy="678" opacity="0.66"></circle><circle r="7.5" cx="325" cy="673" opacity="0.61"></circle><circle r="7.5" cx="211" cy="612" opacity="0.55"></circle><circle r="7.5" cx="136" cy="506" opacity="0.37"></circle><circle r="7.5" cx="116" cy="378" opacity="0.81"></circle><circle r="7.5" cx="155" cy="254" opacity="0.48"></circle><circle r="7.5" cx="245" cy="160" opacity="0.83"></circle><circle r="7.5" cx="368" cy="116" opacity="0.97"></circle><circle r="7.5" cx="498" cy="131" opacity="0.30"></circle><circle r="7.5" cx="607" cy="202" opacity="0.51"></circle><circle r="7.5" cx="674" cy="314" opacity="0.59"></circle><circle r="7.5" cx="684" cy="445" opacity="0.64"></circle><circle r="7.5" cx="635" cy="567" opacity="0.21"></circle><circle r="7.5" cx="537" cy="654" opacity="0.70"></circle><circle r="7.5" cx="410" cy="689" opacity="0.38"></circle><circle r="7.5" cx="280" cy="664" opacity="0.73"></circle><circle r="7.5" cx="175" cy="584" opacity="0.81"></circle><circle r="7.5" cx="117" cy="465" opacity="0.67"></circle><circle r="7.5" cx="117" cy="332" opacity="0.20"></circle><circle r="7.5" cx="176" cy="213" opacity="0.95"></circle><circle r="7.5" cx="282" cy="133" opacity="0.69"></circle><circle r="7.5" cx="413" cy="108" opacity="0.79"></circle><circle r="7.5" cx="542" cy="144" opacity="0.36"></circle><circle r="7.5" cx="641" cy="233" opacity="0.70"></circle><circle r="7.5" cx="691" cy="357" opacity="0.95"></circle><circle r="7.5" cx="680" cy="491" opacity="0.50"></circle><circle r="7.5" cx="611" cy="606" opacity="0.80"></circle><circle r="7.5" cx="498" cy="679" opacity="0.83"></circle><circle r="7.5" cx="364" cy="693" opacity="0.95"></circle><circle r="7.5" cx="237" cy="647" opacity="0.87"></circle><circle r="7.5" cx="144" cy="549" opacity="0.92"></circle><circle r="7.5" cx="104" cy="420" opacity="0.13"></circle><circle r="7.5" cx="125" cy="286" opacity="0.25"></circle><circle r="7.5" cx="204" cy="176" opacity="0.44"></circle><circle r="7.5" cx="324" cy="111" opacity="0.43"></circle><circle r="7.5" cx="460" cy="107" opacity="0.46"></circle><circle r="7.5" cx="584" cy="164" opacity="1.00"></circle><circle r="7.5" cx="670" cy="270" opacity="0.53"></circle><circle r="7.5" cx="700" cy="403" opacity="0.47"></circle><circle r="7.5" cx="668" cy="536" opacity="0.12"></circle><circle r="7.5" cx="580" cy="642" opacity="0.32"></circle><circle r="8" cx="454" cy="697" opacity="0.51"></circle><circle r="8" cx="317" cy="690" opacity="0.53"></circle><circle r="8" cx="196" cy="624" opacity="0.22"></circle><circle r="8" cx="118" cy="510" opacity="0.77"></circle><circle r="8" cx="98" cy="373" opacity="0.31"></circle><circle r="8" cx="141" cy="241" opacity="0.73"></circle><circle r="8" cx="238" cy="142" opacity="0.62"></circle><circle r="8" cx="369" cy="97" opacity="0.68"></circle><circle r="8" cx="507" cy="114" opacity="0.91"></circle><circle r="8" cx="623" cy="191" opacity="0.30"></circle><circle r="8" cx="693" cy="312" opacity="0.58"></circle><circle r="8" cx="702" cy="451" opacity="0.10"></circle><circle r="8" cx="649" cy="580" opacity="0.35"></circle><circle r="8" cx="543" cy="672" opacity="0.59"></circle><circle r="8" cx="407" cy="708" opacity="0.22"></circle><circle r="8" cx="270" cy="680" opacity="0.40"></circle><circle r="8" cx="159" cy="593" opacity="0.55"></circle><circle r="8" cx="98" cy="466" opacity="0.13"></circle><circle r="8" cx="99" cy="325" opacity="0.69"></circle><circle r="8" cx="164" cy="199" opacity="0.52"></circle><circle r="8" cx="277" cy="114" opacity="0.37"></circle><circle r="8" cx="417" cy="89" opacity="0.28"></circle><circle r="8" cx="554" cy="129" opacity="0.11"></circle><circle r="8" cx="658" cy="225" opacity="0.27"></circle><circle r="8" cx="710" cy="358" opacity="0.33"></circle><circle r="8" cx="697" cy="500" opacity="0.67"></circle><circle r="8" cx="622" cy="621" opacity="0.64"></circle><circle r="8" cx="501" cy="697" opacity="0.99"></circle><circle r="8" cx="358" cy="712" opacity="0.97"></circle><circle r="8" cx="224" cy="661" opacity="0.98"></circle><circle r="8" cx="126" cy="556" opacity="0.69"></circle><circle r="8" cx="85" cy="418" opacity="0.57"></circle><circle r="8" cx="109" cy="276" opacity="0.95"></circle><circle r="8" cx="194" cy="159" opacity="0.74"></circle><circle r="8" cx="322" cy="92" opacity="0.42"></circle><circle r="8" cx="467" cy="89" opacity="0.47"></circle><circle r="8" cx="598" cy="151" opacity="0.68"></circle><circle r="8" cx="688" cy="264" opacity="0.98"></circle><circle r="8" cx="719" cy="407" opacity="0.71"></circle><circle r="8" cx="683" cy="548" opacity="0.80"></circle><circle r="8" cx="589" cy="659" opacity="0.45"></circle><circle r="8" cx="454" cy="716" opacity="0.72"></circle><circle r="8" cx="308" cy="708" opacity="0.41"></circle><circle r="8.5" cx="181" cy="635" opacity="0.73"></circle><circle r="8.5" cx="99" cy="514" opacity="0.96"></circle><circle r="8.5" cx="79" cy="368" opacity="0.86"></circle><circle r="8.5" cx="126" cy="229" opacity="0.23"></circle><circle r="8.5" cx="231" cy="125" opacity="0.34"></circle><circle r="8.5" cx="370" cy="78" opacity="0.43"></circle><circle r="8.5" cx="517" cy="98" opacity="0.16"></circle><circle r="8.5" cx="639" cy="180" opacity="0.19"></circle><circle r="8.5" cx="712" cy="309" opacity="0.63"></circle><circle r="8.5" cx="721" cy="458" opacity="0.45"></circle><circle r="8.5" cx="662" cy="594" opacity="0.16"></circle><circle r="8.5" cx="549" cy="691" opacity="0.17"></circle><circle r="8.5" cx="404" cy="727" opacity="0.66"></circle><circle r="8.5" cx="259" cy="695" opacity="0.73"></circle><circle r="8.5" cx="142" cy="602" opacity="0.47"></circle><circle r="8.5" cx="78" cy="467" opacity="0.82"></circle><circle r="8.5" cx="82" cy="317" opacity="0.13"></circle><circle r="8.5" cx="152" cy="184" opacity="0.78"></circle><circle r="8.5" cx="273" cy="96" opacity="0.35"></circle><circle r="8.5" cx="422" cy="70" opacity="0.77"></circle><circle r="8.5" cx="566" cy="114" opacity="0.23"></circle><circle r="8.5" cx="676" cy="217" opacity="0.53"></circle><circle r="8.5" cx="729" cy="358" opacity="0.21"></circle><circle r="8.5" cx="714" cy="509" opacity="0.37"></circle><circle r="8.5" cx="633" cy="637" opacity="0.64"></circle><circle r="8.5" cx="504" cy="716" opacity="0.81"></circle><circle r="8.5" cx="352" cy="730" opacity="0.83"></circle><circle r="8.5" cx="210" cy="675" opacity="0.82"></circle><circle r="8.5" cx="108" cy="562" opacity="0.96"></circle><circle r="8.5" cx="66" cy="416" opacity="0.95"></circle><circle r="8.5" cx="93" cy="266" opacity="0.41"></circle><circle r="8.5" cx="184" cy="143" opacity="0.70"></circle><circle r="8.5" cx="321" cy="73" opacity="0.68"></circle><circle r="8.5" cx="474" cy="72" opacity="0.55"></circle><circle r="8.5" cx="612" cy="138" opacity="1.00"></circle><circle r="8.5" cx="707" cy="260" opacity="0.78"></circle><circle r="8.5" cx="738" cy="411" opacity="0.89"></circle><circle r="8.5" cx="698" cy="560" opacity="0.29"></circle><circle r="8.5" cx="597" cy="676" opacity="0.37"></circle><circle r="8.5" cx="454" cy="735" opacity="0.59"></circle><circle r="8.5" cx="299" cy="725" opacity="0.76"></circle><circle r="8.5" cx="165" cy="647" opacity="0.60"></circle><circle r="8.5" cx="80" cy="517" opacity="0.87"></circle><circle r="9" cx="61" cy="363" opacity="0.69"></circle><circle r="9" cx="112" cy="216" opacity="0.83"></circle><circle r="9" cx="224" cy="107" opacity="0.58"></circle><circle r="9" cx="372" cy="58" opacity="0.64"></circle><circle r="9" cx="527" cy="81" opacity="0.76"></circle><circle r="9" cx="656" cy="170" opacity="0.36"></circle><circle r="9" cx="731" cy="308" opacity="0.57"></circle><circle r="9" cx="738" cy="464" opacity="0.85"></circle><circle r="9" cx="675" cy="608" opacity="0.85"></circle><circle r="9" cx="554" cy="709" opacity="0.37"></circle><circle r="9" cx="401" cy="746" opacity="0.64"></circle><circle r="9" cx="247" cy="711" opacity="0.19"></circle><circle r="9" cx="125" cy="611" opacity="0.64"></circle><circle r="9" cx="59" cy="467" opacity="0.36"></circle><circle r="9" cx="65" cy="308" opacity="0.89"></circle><circle r="9" cx="140" cy="169" opacity="0.41"></circle><circle r="9" cx="269" cy="77" opacity="0.63"></circle><circle r="9" cx="426" cy="52" opacity="0.71"></circle><circle r="9" cx="578" cy="99" opacity="0.98"></circle><circle r="9" cx="694" cy="210" opacity="0.14"></circle><circle r="9" cx="748" cy="360" opacity="0.99"></circle><circle r="9" cx="730" cy="519" opacity="0.97"></circle><circle r="9" cx="644" cy="653" opacity="0.99"></circle><circle r="9" cx="506" cy="735" opacity="0.25"></circle><circle r="9" cx="346" cy="748" opacity="0.70"></circle><circle r="9" cx="197" cy="688" opacity="0.47"></circle><circle r="9" cx="89" cy="568" opacity="0.37"></circle><circle r="9" cx="47" cy="413" opacity="0.92"></circle><circle r="9" cx="77" cy="255" opacity="0.64"></circle><circle r="9" cx="175" cy="126" opacity="0.36"></circle><circle r="9" cx="320" cy="54" opacity="0.95"></circle><circle r="9" cx="482" cy="54" opacity="0.20"></circle><circle r="9" cx="627" cy="126" opacity="0.57"></circle><circle r="9" cx="726" cy="255" opacity="0.29"></circle><circle r="9" cx="757" cy="415" opacity="0.57"></circle><circle r="9" cx="713" cy="572" opacity="0.21"></circle><circle r="9" cx="605" cy="693" opacity="0.35"></circle><circle r="9" cx="453" cy="754" opacity="0.27"></circle><circle r="9" cx="290" cy="742" opacity="0.97"></circle><circle r="9" cx="150" cy="658" opacity="0.70"></circle><circle r="9" cx="61" cy="520" opacity="0.77"></circle><circle r="9" cx="42" cy="357" opacity="0.98"></circle><circle r="9" cx="98" cy="202" opacity="0.29"></circle><circle r="9.5" cx="217" cy="89" opacity="0.58"></circle><circle r="9.5" cx="374" cy="39" opacity="0.20"></circle><circle r="9.5" cx="537" cy="65" opacity="0.51"></circle><circle r="9.5" cx="672" cy="161" opacity="0.21"></circle><circle r="9.5" cx="751" cy="306" opacity="0.46"></circle><circle r="9.5" cx="756" cy="472" opacity="0.92"></circle><circle r="9.5" cx="688" cy="623" opacity="0.65"></circle><circle r="9.5" cx="559" cy="728" opacity="0.86"></circle><circle r="9.5" cx="397" cy="765" opacity="0.11"></circle><circle r="9.5" cx="235" cy="726" opacity="0.21"></circle><circle r="9.5" cx="107" cy="619" opacity="0.59"></circle><circle r="9.5" cx="40" cy="467" opacity="0.61"></circle><circle r="9.5" cx="47" cy="300" opacity="0.25"></circle><circle r="9.5" cx="128" cy="153" opacity="0.48"></circle><circle r="9.5" cx="266" cy="58" opacity="0.32"></circle><circle r="9.5" cx="432" cy="33" opacity="0.47"></circle><circle r="9.5" cx="591" cy="85" opacity="0.15"></circle><circle r="9.5" cx="712" cy="203" opacity="0.75"></circle><circle r="9.5" cx="767" cy="361" opacity="0.47"></circle><circle r="9.5" cx="747" cy="529" opacity="0.50"></circle><circle r="9.5" cx="654" cy="669" opacity="0.24"></circle><circle r="9.5" cx="508" cy="755" opacity="0.80"></circle><circle r="9.5" cx="339" cy="766" opacity="0.35"></circle><circle r="9.5" cx="183" cy="701" opacity="0.42"></circle><circle r="9.5" cx="71" cy="574" opacity="0.21"></circle><circle r="9.5" cx="28" cy="410" opacity="0.36"></circle><circle r="9.5" cx="62" cy="243" opacity="0.73"></circle><circle r="9.5" cx="166" cy="109" opacity="0.99"></circle><circle r="9.5" cx="319" cy="35" opacity="0.28"></circle><circle r="9.5" cx="490" cy="37" opacity="0.15"></circle><circle r="9.5" cx="642" cy="114" opacity="0.44"></circle><circle r="9.5" cx="745" cy="251" opacity="0.39"></circle><circle r="9.5" cx="775" cy="420" opacity="0.12"></circle><circle r="9.5" cx="728" cy="584" opacity="0.56"></circle><circle r="9.5" cx="612" cy="711" opacity="0.27"></circle><circle r="9.5" cx="452" cy="774" opacity="0.44"></circle><circle r="9.5" cx="281" cy="758" opacity="0.24"></circle><circle r="9.5" cx="134" cy="668" opacity="0.93"></circle><circle r="9.5" cx="42" cy="522" opacity="0.47"></circle><circle r="9.5" cx="24" cy="351" opacity="0.83"></circle><circle r="9.5" cx="85" cy="189" opacity="0.89"></circle><circle r="9.5" cx="211" cy="70" opacity="0.19"></circle><circle r="9.5" cx="377" cy="20" opacity="0.86"></circle><circle r="10" cx="548" cy="49" opacity="0.74"></circle><circle r="10" cx="689" cy="151" opacity="0.61"></circle><circle r="10" cx="770" cy="305" opacity="0.78"></circle><circle r="10" cx="774" cy="479" opacity="0.52"></circle><circle r="10" cx="700" cy="637" opacity="0.40"></circle><circle r="10" cx="564" cy="746" opacity="0.88"></circle><circle r="10" cx="393" cy="784" opacity="0.43"></circle><circle r="10" cx="223" cy="741" opacity="0.23"></circle><circle r="10" cx="90" cy="627" opacity="0.45"></circle><circle r="10" cx="21" cy="466" opacity="0.34"></circle><circle r="10" cx="30" cy="291" opacity="0.76"></circle><circle r="10" cx="117" cy="138" opacity="0.90"></circle><circle r="10" cx="263" cy="39" opacity="0.73"></circle><circle r="10" cx="437" cy="15" opacity="0.85"></circle><circle r="10" cx="605" cy="71" opacity="0.50"></circle><circle r="10" cx="730" cy="196" opacity="0.68"></circle><circle r="10" cx="786" cy="363" opacity="0.79"></circle><circle r="10" cx="763" cy="539" opacity="1.00"></circle><circle r="10" cx="664" cy="686" opacity="0.26"></circle><circle r="10" cx="510" cy="774" opacity="0.27"></circle><circle r="10" cx="332" cy="784" opacity="0.93"></circle><circle r="10" cx="168" cy="714" opacity="0.67"></circle><circle r="10" cx="53" cy="579" opacity="0.80"></circle><circle r="10" cx="9" cy="406" opacity="0.21"></circle><circle r="10" cx="46" cy="232" opacity="0.16"></circle><circle r="10" cx="157" cy="92" opacity="0.61"></circle><circle r="10" cx="319" cy="16" opacity="0.22"></circle><circle r="10" cx="499" cy="19" opacity="0.45"></circle><circle r="10" cx="658" cy="102" opacity="0.46"></circle><circle r="10" cx="763" cy="247" opacity="0.27"></circle><circle r="10" cx="794" cy="425" opacity="0.38"></circle><circle r="10" cx="742" cy="597" opacity="0.14"></circle><circle r="10" cx="619" cy="729" opacity="0.33"></circle><circle r="10" cx="451" cy="793" opacity="0.86"></circle><circle r="10" cx="271" cy="775" opacity="0.89"></circle><circle r="10" cx="118" cy="679" opacity="0.78"></circle><circle r="10" cx="23" cy="525" opacity="0.79"></circle><circle r="10" cx="6" cy="344" opacity="0.19"></circle><circle r="10" cx="71" cy="175" opacity="0.29"></circle><circle r="10" cx="205" cy="52" opacity="0.72"></circle><circle r="10" cx="380" cy="1" opacity="0.10"></circle><circle r="10" cx="559" cy="33" opacity="0.20"></circle><circle r="10" cx="706" cy="142" opacity="0.16"></circle></g></svg>